<svg width="16" height="17" viewBox="0 0 16 17" fill="none" xmlns="http://www.w3.org/2000/svg">
<path d="M12.0206 11.1414L14.8758 13.9966L13.933 14.9394L11.0778 12.0842C10.0512 12.9056 8.74931 13.3969 7.33331 13.3969C4.02131 13.3969 1.33331 10.7089 1.33331 7.39691C1.33331 4.08491 4.02131 1.39691 7.33331 1.39691C10.6453 1.39691 13.3333 4.08491 13.3333 7.39691C13.3333 8.81291 12.842 10.1148 12.0206 11.1414ZM10.6831 10.6468C11.4983 9.80664 12 8.66064 12 7.39691C12 4.81858 9.91165 2.73024 7.33331 2.73024C4.75498 2.73024 2.66665 4.81858 2.66665 7.39691C2.66665 9.97524 4.75498 12.0636 7.33331 12.0636C8.59705 12.0636 9.74305 11.5619 10.5832 10.7467L10.6831 10.6468Z" fill="black"/>
</svg>
