<svg width="39" height="46" viewBox="0 0 39 46" fill="none" xmlns="http://www.w3.org/2000/svg">
<g clip-path="url(#clip0_47_56)">
<path d="M36.7567 7.78218L31.0843 2.10979L29.0019 0.0273438H26.0568H24.5254H22.4429H17.3684H15.286H9.18226H7.09982H3.07854H0.996094V2.10979V16.3757V18.4582V23.5566V25.639V42.9449V42.9688V45.0273H1.28333H3.07854H15.286H16.4589H17.3684V42.9688V42.9449V25.639V23.5566H15.286H9.18226V18.4582H15.286H17.3684H22.4429H24.5254H30.5812V23.5566H24.5254H22.4429V25.639V42.9449V42.9688V45.0273H22.9216H24.5254H36.7567H38.0972H38.8392V42.9688V42.9449V25.639V23.5566V18.4582V16.3757V12.8097V9.86463L36.7567 7.78218ZM36.7567 16.3757V18.4582V23.5566V25.639V42.9449H24.5254V25.639H30.5812H32.6636V23.5566V18.4582V16.3757H30.5812H24.5254H22.4429H17.3684H15.286H9.18226H7.09982V18.4582V23.5566V25.639H9.18226H15.286V42.9449H3.07854V25.639V23.5566V18.4582V16.3757V2.10979H7.09982H9.18226H15.286H17.3684H22.4429H24.5254H28.1392L36.7567 10.7273V16.3757Z" fill="#0DA665"/>
<path d="M28.5706 6.15479H7.19556V8.18936H28.5706V6.15479Z" fill="black"/>
<path d="M32.6636 10.248H7.19556V12.2826H32.6636V10.248Z" fill="black"/>
</g>
<defs>
<clipPath id="clip0_47_56">
<rect width="37.8431" height="45" fill="white" transform="translate(0.996094 0.0273438)"/>
</clipPath>
</defs>
</svg>
