<svg width="39" height="46" viewBox="0 0 39 46" fill="none" xmlns="http://www.w3.org/2000/svg">
<g clip-path="url(#clip0_22_59)">
<path d="M36.7567 8.25484L31.0843 2.58245L29.0019 0.5H26.0568H24.5254H22.4429H17.3684H15.286H9.18226H7.09982H3.07854H0.996094V2.58245V16.8484V18.9309V24.0293V26.1117V43.4176V43.4415V45.5H1.28333H3.07854H15.286H16.4589H17.3684V43.4415V43.4176V26.1117V24.0293H15.286H9.18226V18.9309H15.286H17.3684H22.4429H24.5254H30.5812V24.0293H24.5254H22.4429V26.1117V43.4176V43.4415V45.5H22.9216H24.5254H36.7567H38.0972H38.8392V43.4415V43.4176V26.1117V24.0293V18.9309V16.8484V13.2824V10.3373L36.7567 8.25484ZM36.7567 16.8484V18.9309V24.0293V26.1117V43.4176H24.5254V26.1117H30.5812H32.6636V24.0293V18.9309V16.8484H30.5812H24.5254H22.4429H17.3684H15.286H9.18226H7.09982V18.9309V24.0293V26.1117H9.18226H15.286V43.4176H3.07854V26.1117V24.0293V18.9309V16.8484V2.58245H7.09982H9.18226H15.286H17.3684H22.4429H24.5254H28.1392L36.7567 11.1999V16.8484Z" fill="white"/>
<path d="M28.5706 6.62766H7.19556V8.66223H28.5706V6.62766Z" fill="white"/>
<path d="M32.6636 10.7207H7.19556V12.7553H32.6636V10.7207Z" fill="white"/>
</g>
<defs>
<clipPath id="clip0_22_59">
<rect width="37.8431" height="45" fill="white" transform="translate(0.996094 0.5)"/>
</clipPath>
</defs>
</svg>
